<?xml version="1.0" encoding="UTF-8"?>
<mxfile host="app.diagrams.net" modified="2023-11-23T11:24:34.224Z" agent="Mozilla/5.0 (Windows NT 10.0; Win64; x64) AppleWebKit/537.36 (KHTML, like Gecko) Chrome/119.0.0.0 Safari/537.36" etag="XflbjN7K8IPf0PZb8VCz" version="22.1.3" type="google">
  <diagram name="Page-1" id="e7e014a7-5840-1c2e-5031-d8a46d1fe8dd">
    <mxGraphModel dx="880" dy="1260" grid="1" gridSize="10" guides="1" tooltips="1" connect="1" arrows="1" fold="1" page="1" pageScale="1" pageWidth="1169" pageHeight="826" background="none" math="0" shadow="0">
      <root>
        <mxCell id="0" />
        <mxCell id="1" parent="0" />
        <mxCell id="BlgcW5Yse4qnBoH1ercz-41" value="Instr Memory" style="" parent="1" vertex="1">
          <mxGeometry x="120" y="190" width="130" height="220" as="geometry" />
        </mxCell>
        <mxCell id="BlgcW5Yse4qnBoH1ercz-109" style="edgeStyle=orthogonalEdgeStyle;rounded=0;orthogonalLoop=1;jettySize=auto;html=1;exitX=1;exitY=0.25;exitDx=0;exitDy=0;entryX=0;entryY=0.25;entryDx=0;entryDy=0;" parent="1" source="BlgcW5Yse4qnBoH1ercz-42" target="BlgcW5Yse4qnBoH1ercz-101" edge="1">
          <mxGeometry relative="1" as="geometry" />
        </mxCell>
        <mxCell id="BlgcW5Yse4qnBoH1ercz-110" style="edgeStyle=orthogonalEdgeStyle;rounded=0;orthogonalLoop=1;jettySize=auto;html=1;exitX=1;exitY=0.5;exitDx=0;exitDy=0;entryX=0;entryY=0.5;entryDx=0;entryDy=0;" parent="1" source="BlgcW5Yse4qnBoH1ercz-42" target="BlgcW5Yse4qnBoH1ercz-102" edge="1">
          <mxGeometry relative="1" as="geometry" />
        </mxCell>
        <mxCell id="BlgcW5Yse4qnBoH1ercz-42" value="Registers Bank" style="" parent="1" vertex="1">
          <mxGeometry x="390" y="193" width="130" height="220" as="geometry" />
        </mxCell>
        <mxCell id="BlgcW5Yse4qnBoH1ercz-122" style="edgeStyle=orthogonalEdgeStyle;rounded=0;orthogonalLoop=1;jettySize=auto;html=1;exitX=1;exitY=0.25;exitDx=0;exitDy=0;entryX=0;entryY=0.5;entryDx=0;entryDy=0;" parent="1" source="BlgcW5Yse4qnBoH1ercz-44" target="BlgcW5Yse4qnBoH1ercz-113" edge="1">
          <mxGeometry relative="1" as="geometry" />
        </mxCell>
        <mxCell id="BlgcW5Yse4qnBoH1ercz-44" value="Data Memory" style="" parent="1" vertex="1">
          <mxGeometry x="860" y="193" width="130" height="220" as="geometry" />
        </mxCell>
        <mxCell id="BlgcW5Yse4qnBoH1ercz-80" style="edgeStyle=orthogonalEdgeStyle;rounded=0;orthogonalLoop=1;jettySize=auto;html=1;exitX=1;exitY=0.5;exitDx=0;exitDy=0;entryX=0;entryY=0.5;entryDx=0;entryDy=0;strokeColor=#66B2FF;" parent="1" source="BlgcW5Yse4qnBoH1ercz-49" target="BlgcW5Yse4qnBoH1ercz-76" edge="1">
          <mxGeometry relative="1" as="geometry" />
        </mxCell>
        <mxCell id="BlgcW5Yse4qnBoH1ercz-49" value="Control Unit" style="ellipse;whiteSpace=wrap;html=1;strokeColor=#3399FF;fontColor=#66B2FF;" parent="1" vertex="1">
          <mxGeometry x="420" y="101" width="70" height="60" as="geometry" />
        </mxCell>
        <mxCell id="BlgcW5Yse4qnBoH1ercz-93" style="edgeStyle=orthogonalEdgeStyle;rounded=0;orthogonalLoop=1;jettySize=auto;html=1;exitX=0.5;exitY=1;exitDx=0;exitDy=0;endArrow=none;endFill=0;strokeColor=#3399FF;" parent="1" source="BlgcW5Yse4qnBoH1ercz-50" edge="1">
          <mxGeometry relative="1" as="geometry">
            <mxPoint x="704.4285714285716" y="550" as="targetPoint" />
          </mxGeometry>
        </mxCell>
        <mxCell id="b1a8amr-9f0_IU5kSMrG-14" value="/ 3" style="edgeLabel;html=1;align=center;verticalAlign=middle;resizable=0;points=[];fontColor=#007FFF;" parent="BlgcW5Yse4qnBoH1ercz-93" connectable="0" vertex="1">
          <mxGeometry x="0.4884" y="4" relative="1" as="geometry">
            <mxPoint as="offset" />
          </mxGeometry>
        </mxCell>
        <mxCell id="C-zeAwM3Q5V-ztLSvU6A-5" style="edgeStyle=orthogonalEdgeStyle;rounded=0;orthogonalLoop=1;jettySize=auto;html=1;exitX=0.5;exitY=0;exitDx=0;exitDy=0;" parent="1" source="BlgcW5Yse4qnBoH1ercz-50" target="C-zeAwM3Q5V-ztLSvU6A-4" edge="1">
          <mxGeometry relative="1" as="geometry" />
        </mxCell>
        <mxCell id="4VJ9NztpFldPvkG-AUSs-8" value="/3" style="edgeLabel;html=1;align=center;verticalAlign=middle;resizable=0;points=[];" parent="C-zeAwM3Q5V-ztLSvU6A-5" vertex="1" connectable="0">
          <mxGeometry x="0.2427" y="-1" relative="1" as="geometry">
            <mxPoint as="offset" />
          </mxGeometry>
        </mxCell>
        <mxCell id="BlgcW5Yse4qnBoH1ercz-50" value="ALU control" style="ellipse;whiteSpace=wrap;html=1;" parent="1" vertex="1">
          <mxGeometry x="669.29" y="420" width="70" height="60" as="geometry" />
        </mxCell>
        <mxCell id="BlgcW5Yse4qnBoH1ercz-52" value="" style="rounded=0;whiteSpace=wrap;html=1;points=[[0,0,0,0,0],[0,0.25,0,0,0],[0,0.5,0,0,0],[0,0.62,0,0,0],[0,0.75,0,0,0],[0,0.87,0,0,0],[0,1,0,0,0],[0.03,0.1,0,0,0],[0.07,0.38,0,0,0],[0.25,0,0,0,0],[0.25,1,0,0,0],[0.5,0,0,0,0],[0.5,1,0,0,0],[0.75,0,0,0,0],[0.75,1,0,0,0],[0.98,0.62,0,0,0],[1,0,0,0,0],[1,0.1,0,0,0],[1,0.25,0,0,0],[1,0.38,0,2,0],[1,0.5,0,0,0],[1,0.75,0,0,0],[1,0.87,0,0,0],[1,1,0,0,0]];" parent="1" vertex="1">
          <mxGeometry x="560" y="100" width="30" height="420" as="geometry" />
        </mxCell>
        <mxCell id="BlgcW5Yse4qnBoH1ercz-107" style="edgeStyle=orthogonalEdgeStyle;rounded=0;orthogonalLoop=1;jettySize=auto;html=1;exitX=1;exitY=0.5;exitDx=0;exitDy=0;entryX=0;entryY=0.25;entryDx=0;entryDy=0;" parent="1" source="BlgcW5Yse4qnBoH1ercz-62" target="BlgcW5Yse4qnBoH1ercz-41" edge="1">
          <mxGeometry relative="1" as="geometry">
            <Array as="points">
              <mxPoint x="100" y="165" />
              <mxPoint x="100" y="245" />
            </Array>
          </mxGeometry>
        </mxCell>
        <mxCell id="BlgcW5Yse4qnBoH1ercz-62" value="PC" style="rounded=0;whiteSpace=wrap;html=1;" parent="1" vertex="1">
          <mxGeometry x="30" y="110" width="60" height="110" as="geometry" />
        </mxCell>
        <mxCell id="BlgcW5Yse4qnBoH1ercz-97" style="edgeStyle=orthogonalEdgeStyle;rounded=0;orthogonalLoop=1;jettySize=auto;html=1;exitX=0;exitY=0.75;exitDx=0;exitDy=0;exitPerimeter=0;endArrow=none;endFill=0;" parent="1" source="BlgcW5Yse4qnBoH1ercz-63" edge="1">
          <mxGeometry relative="1" as="geometry">
            <mxPoint x="140" y="112.85714285714289" as="targetPoint" />
          </mxGeometry>
        </mxCell>
        <mxCell id="BlgcW5Yse4qnBoH1ercz-98" value="4" style="edgeLabel;html=1;align=center;verticalAlign=middle;resizable=0;points=[];fontSize=18;" parent="BlgcW5Yse4qnBoH1ercz-97" connectable="0" vertex="1">
          <mxGeometry x="0.5343" y="-3" relative="1" as="geometry">
            <mxPoint x="-14" as="offset" />
          </mxGeometry>
        </mxCell>
        <mxCell id="BlgcW5Yse4qnBoH1ercz-63" value="Adder" style="shape=step;perimeter=stepPerimeter;whiteSpace=wrap;html=1;fixedSize=1;points=[[0,0.25,0,0,0],[0,0.5,0,0,0],[0,0.75,0,0,0],[0.04,0.12,0,0,0],[0.04,0.89,0,0,0],[0.25,0,0,0,0],[0.25,1,0,0,0],[0.5,0,0,0,0],[0.5,1,0,0,0],[0.75,0,0,0,0],[0.75,1,0,0,0],[1,0.25,0,0,0],[1,0.5,0,0,0],[1,0.75,0,0,0]];" parent="1" vertex="1">
          <mxGeometry x="180" y="60" width="90" height="70" as="geometry" />
        </mxCell>
        <mxCell id="BlgcW5Yse4qnBoH1ercz-64" value="Adder" style="shape=step;perimeter=stepPerimeter;whiteSpace=wrap;html=1;fixedSize=1;" parent="1" vertex="1">
          <mxGeometry x="664.99" y="10" width="90" height="70" as="geometry" />
        </mxCell>
        <mxCell id="BlgcW5Yse4qnBoH1ercz-65" value="&lt;font style=&quot;font-size: 21px;&quot;&gt;IF/ID&lt;/font&gt;" style="text;html=1;strokeColor=none;fillColor=none;align=center;verticalAlign=middle;whiteSpace=wrap;rounded=0;" parent="1" vertex="1">
          <mxGeometry x="280" y="540" width="60" height="30" as="geometry" />
        </mxCell>
        <mxCell id="BlgcW5Yse4qnBoH1ercz-66" value="&lt;span style=&quot;font-size: 21px;&quot;&gt;ID/EX&lt;/span&gt;" style="text;html=1;strokeColor=none;fillColor=none;align=center;verticalAlign=middle;whiteSpace=wrap;rounded=0;" parent="1" vertex="1">
          <mxGeometry x="545" y="540" width="60" height="30" as="geometry" />
        </mxCell>
        <mxCell id="BlgcW5Yse4qnBoH1ercz-67" value="&lt;font style=&quot;font-size: 21px;&quot;&gt;EX/MEM&lt;/font&gt;" style="text;html=1;strokeColor=none;fillColor=none;align=center;verticalAlign=middle;whiteSpace=wrap;rounded=0;" parent="1" vertex="1">
          <mxGeometry x="785" y="540" width="60" height="30" as="geometry" />
        </mxCell>
        <mxCell id="BlgcW5Yse4qnBoH1ercz-68" value="&lt;font style=&quot;font-size: 21px;&quot;&gt;MEM/WB&lt;/font&gt;" style="text;html=1;strokeColor=none;fillColor=none;align=center;verticalAlign=middle;whiteSpace=wrap;rounded=0;" parent="1" vertex="1">
          <mxGeometry x="1005" y="540" width="60" height="30" as="geometry" />
        </mxCell>
        <mxCell id="BlgcW5Yse4qnBoH1ercz-72" style="edgeStyle=orthogonalEdgeStyle;rounded=0;orthogonalLoop=1;jettySize=auto;html=1;exitX=1;exitY=0.5;exitDx=0;exitDy=0;exitPerimeter=0;entryX=0;entryY=0.25;entryDx=0;entryDy=0;" parent="1" source="BlgcW5Yse4qnBoH1ercz-71" target="BlgcW5Yse4qnBoH1ercz-42" edge="1">
          <mxGeometry relative="1" as="geometry">
            <Array as="points">
              <mxPoint x="350" y="310" />
              <mxPoint x="350" y="248" />
            </Array>
          </mxGeometry>
        </mxCell>
        <mxCell id="BlgcW5Yse4qnBoH1ercz-71" value="" style="rounded=0;whiteSpace=wrap;html=1;points=[[0,0,0,0,0],[0,0.25,0,0,0],[0,0.5,0,0,0],[0,0.62,0,0,0],[0,0.75,0,0,0],[0,0.87,0,0,0],[0,1,0,0,0],[0.03,0.1,0,0,0],[0.07,0.38,0,0,0],[0.25,0,0,0,0],[0.25,1,0,0,0],[0.5,0,0,0,0],[0.5,1,0,0,0],[0.75,0,0,0,0],[0.75,1,0,0,0],[0.98,0.62,0,0,0],[1,0,0,0,0],[1,0.1,0,0,0],[1,0.25,0,0,0],[1,0.38,0,2,0],[1,0.5,0,0,0],[1,0.75,0,0,0],[1,0.87,0,0,0],[1,1,0,0,0]];" parent="1" vertex="1">
          <mxGeometry x="295" y="100" width="30" height="420" as="geometry" />
        </mxCell>
        <mxCell id="BlgcW5Yse4qnBoH1ercz-73" style="edgeStyle=orthogonalEdgeStyle;rounded=0;orthogonalLoop=1;jettySize=auto;html=1;exitX=1;exitY=0.5;exitDx=0;exitDy=0;entryX=0;entryY=0.5;entryDx=0;entryDy=0;entryPerimeter=0;" parent="1" source="BlgcW5Yse4qnBoH1ercz-41" target="BlgcW5Yse4qnBoH1ercz-71" edge="1">
          <mxGeometry relative="1" as="geometry" />
        </mxCell>
        <mxCell id="BlgcW5Yse4qnBoH1ercz-74" value="" style="rounded=0;whiteSpace=wrap;html=1;points=[[0,0,0,0,0],[0,0.25,0,0,0],[0,0.5,0,0,0],[0,0.62,0,0,0],[0,0.75,0,0,0],[0,0.87,0,0,0],[0,1,0,0,0],[0.03,0.1,0,0,0],[0.07,0.38,0,0,0],[0.25,0,0,0,0],[0.25,1,0,0,0],[0.5,0,0,0,0],[0.5,1,0,0,0],[0.75,0,0,0,0],[0.75,1,0,0,0],[0.98,0.62,0,0,0],[1,0,0,0,0],[1,0.1,0,0,0],[1,0.25,0,0,0],[1,0.38,0,2,0],[1,0.5,0,0,0],[1,0.75,0,0,0],[1,0.87,0,0,0],[1,1,0,0,0]];" parent="1" vertex="1">
          <mxGeometry x="1020" y="100" width="30" height="420" as="geometry" />
        </mxCell>
        <mxCell id="BlgcW5Yse4qnBoH1ercz-75" value="" style="rounded=0;whiteSpace=wrap;html=1;points=[[0,0,0,0,0],[0,0.25,0,0,0],[0,0.5,0,0,0],[0,0.62,0,0,0],[0,0.75,0,0,0],[0,0.87,0,0,0],[0,1,0,0,0],[0.03,0.1,0,0,0],[0.07,0.38,0,0,0],[0.25,0,0,0,0],[0.25,1,0,0,0],[0.5,0,0,0,0],[0.5,1,0,0,0],[0.75,0,0,0,0],[0.75,1,0,0,0],[0.98,0.62,0,0,0],[1,0,0,0,0],[1,0.1,0,0,0],[1,0.25,0,0,0],[1,0.38,0,2,0],[1,0.5,0,0,0],[1,0.75,0,0,0],[1,0.87,0,0,0],[1,1,0,0,0]];" parent="1" vertex="1">
          <mxGeometry x="800" y="100" width="30" height="420" as="geometry" />
        </mxCell>
        <mxCell id="BlgcW5Yse4qnBoH1ercz-81" style="edgeStyle=orthogonalEdgeStyle;rounded=0;orthogonalLoop=1;jettySize=auto;html=1;exitX=1;exitY=0.5;exitDx=0;exitDy=0;entryX=0;entryY=0.5;entryDx=0;entryDy=0;strokeColor=#66B2FF;" parent="1" source="BlgcW5Yse4qnBoH1ercz-76" target="BlgcW5Yse4qnBoH1ercz-77" edge="1">
          <mxGeometry relative="1" as="geometry" />
        </mxCell>
        <mxCell id="BlgcW5Yse4qnBoH1ercz-88" value="/&lt;br style=&quot;font-size: 11px;&quot;&gt;10" style="edgeLabel;html=1;align=center;verticalAlign=middle;resizable=0;points=[];fontSize=11;" parent="BlgcW5Yse4qnBoH1ercz-81" connectable="0" vertex="1">
          <mxGeometry x="-0.0054" y="-1" relative="1" as="geometry">
            <mxPoint y="9" as="offset" />
          </mxGeometry>
        </mxCell>
        <mxCell id="BlgcW5Yse4qnBoH1ercz-76" value="" style="rounded=0;whiteSpace=wrap;html=1;strokeColor=#66B2FF;" parent="1" vertex="1">
          <mxGeometry x="560" y="120" width="30" height="30" as="geometry" />
        </mxCell>
        <mxCell id="BlgcW5Yse4qnBoH1ercz-82" style="edgeStyle=orthogonalEdgeStyle;rounded=0;orthogonalLoop=1;jettySize=auto;html=1;exitX=1;exitY=0.5;exitDx=0;exitDy=0;entryX=0;entryY=0.5;entryDx=0;entryDy=0;strokeColor=#66B2FF;" parent="1" source="BlgcW5Yse4qnBoH1ercz-77" target="BlgcW5Yse4qnBoH1ercz-78" edge="1">
          <mxGeometry relative="1" as="geometry" />
        </mxCell>
        <mxCell id="BlgcW5Yse4qnBoH1ercz-77" value="" style="rounded=0;whiteSpace=wrap;html=1;strokeColor=#66B2FF;" parent="1" vertex="1">
          <mxGeometry x="800" y="120" width="30" height="30" as="geometry" />
        </mxCell>
        <mxCell id="cZ4eaOPi89ZEALqz1hl4-5" style="edgeStyle=orthogonalEdgeStyle;rounded=0;orthogonalLoop=1;jettySize=auto;html=1;exitX=1;exitY=0.25;exitDx=0;exitDy=0;strokeColor=#66B2FF;" edge="1" parent="1" source="BlgcW5Yse4qnBoH1ercz-78" target="cZ4eaOPi89ZEALqz1hl4-4">
          <mxGeometry relative="1" as="geometry">
            <Array as="points">
              <mxPoint x="1070" y="128" />
              <mxPoint x="1070" />
              <mxPoint x="400" />
              <mxPoint x="400" y="180" />
              <mxPoint x="450" y="180" />
            </Array>
          </mxGeometry>
        </mxCell>
        <mxCell id="BlgcW5Yse4qnBoH1ercz-78" value="" style="rounded=0;whiteSpace=wrap;html=1;strokeColor=#66B2FF;" parent="1" vertex="1">
          <mxGeometry x="1020" y="120" width="30" height="30" as="geometry" />
        </mxCell>
        <mxCell id="BlgcW5Yse4qnBoH1ercz-83" value="ID_EX_control_signals" style="text;html=1;strokeColor=none;fillColor=none;align=center;verticalAlign=middle;whiteSpace=wrap;rounded=0;" parent="1" vertex="1">
          <mxGeometry x="527" y="140" width="115" height="30" as="geometry" />
        </mxCell>
        <mxCell id="BlgcW5Yse4qnBoH1ercz-84" value="EX_MEM_control_signals" style="text;html=1;strokeColor=none;fillColor=none;align=center;verticalAlign=middle;whiteSpace=wrap;rounded=0;" parent="1" vertex="1">
          <mxGeometry x="757.5" y="130" width="115" height="30" as="geometry" />
        </mxCell>
        <mxCell id="BlgcW5Yse4qnBoH1ercz-85" value="MEM_WB_control_signals" style="text;html=1;strokeColor=none;fillColor=none;align=center;verticalAlign=middle;whiteSpace=wrap;rounded=0;" parent="1" vertex="1">
          <mxGeometry x="990" y="140" width="115" height="30" as="geometry" />
        </mxCell>
        <mxCell id="BlgcW5Yse4qnBoH1ercz-90" value="/&lt;br style=&quot;font-size: 11px;&quot;&gt;10" style="edgeLabel;html=1;align=center;verticalAlign=middle;resizable=0;points=[];fontSize=11;" parent="1" connectable="0" vertex="1">
          <mxGeometry x="704.2857142857142" y="155" as="geometry">
            <mxPoint x="-194" y="-26" as="offset" />
          </mxGeometry>
        </mxCell>
        <mxCell id="BlgcW5Yse4qnBoH1ercz-91" value="/&lt;br style=&quot;font-size: 11px;&quot;&gt;10" style="edgeLabel;html=1;align=center;verticalAlign=middle;resizable=0;points=[];fontSize=11;" parent="1" connectable="0" vertex="1">
          <mxGeometry x="709.9957142857143" y="155" as="geometry">
            <mxPoint x="214" y="-16" as="offset" />
          </mxGeometry>
        </mxCell>
        <mxCell id="BlgcW5Yse4qnBoH1ercz-96" style="edgeStyle=orthogonalEdgeStyle;rounded=0;orthogonalLoop=1;jettySize=auto;html=1;entryX=0.04;entryY=0.12;entryDx=0;entryDy=0;entryPerimeter=0;" parent="1" target="BlgcW5Yse4qnBoH1ercz-63" edge="1">
          <mxGeometry relative="1" as="geometry">
            <mxPoint x="90" y="155" as="sourcePoint" />
            <mxPoint x="150" y="67.5" as="targetPoint" />
            <Array as="points">
              <mxPoint x="120" y="155" />
              <mxPoint x="120" y="67" />
              <mxPoint x="184" y="67" />
            </Array>
          </mxGeometry>
        </mxCell>
        <mxCell id="b1a8amr-9f0_IU5kSMrG-11" style="edgeStyle=orthogonalEdgeStyle;rounded=0;orthogonalLoop=1;jettySize=auto;html=1;exitX=0.25;exitY=1;exitDx=0;exitDy=0;endArrow=none;endFill=0;strokeColor=#007FFF;" parent="1" source="BlgcW5Yse4qnBoH1ercz-99" edge="1">
          <mxGeometry relative="1" as="geometry">
            <mxPoint x="645" y="430" as="targetPoint" />
          </mxGeometry>
        </mxCell>
        <mxCell id="b1a8amr-9f0_IU5kSMrG-12" value="Reg_Write" style="edgeLabel;html=1;align=center;verticalAlign=middle;resizable=0;points=[];fontColor=#007FFF;fontSize=13;" parent="b1a8amr-9f0_IU5kSMrG-11" connectable="0" vertex="1">
          <mxGeometry x="0.9612" y="-1" relative="1" as="geometry">
            <mxPoint x="-154" y="-249" as="offset" />
          </mxGeometry>
        </mxCell>
        <mxCell id="BlgcW5Yse4qnBoH1ercz-99" value="0&lt;br&gt;&lt;br&gt;1" style="rounded=0;whiteSpace=wrap;html=1;" parent="1" vertex="1">
          <mxGeometry x="640" y="300" width="20" height="80" as="geometry" />
        </mxCell>
        <mxCell id="BlgcW5Yse4qnBoH1ercz-101" value="ID_EX_Read_data_1" style="rounded=0;whiteSpace=wrap;html=1;" parent="1" vertex="1">
          <mxGeometry x="560" y="240" width="30" height="30" as="geometry" />
        </mxCell>
        <mxCell id="C-zeAwM3Q5V-ztLSvU6A-1" style="edgeStyle=orthogonalEdgeStyle;rounded=0;orthogonalLoop=1;jettySize=auto;html=1;exitX=1;exitY=0.5;exitDx=0;exitDy=0;entryX=0;entryY=0.25;entryDx=0;entryDy=0;" parent="1" source="BlgcW5Yse4qnBoH1ercz-102" target="BlgcW5Yse4qnBoH1ercz-99" edge="1">
          <mxGeometry relative="1" as="geometry" />
        </mxCell>
        <mxCell id="BlgcW5Yse4qnBoH1ercz-102" value="ID_EX_Read_data_2" style="rounded=0;whiteSpace=wrap;html=1;" parent="1" vertex="1">
          <mxGeometry x="560" y="310" width="30" height="30" as="geometry" />
        </mxCell>
        <mxCell id="C-zeAwM3Q5V-ztLSvU6A-3" style="edgeStyle=orthogonalEdgeStyle;rounded=0;orthogonalLoop=1;jettySize=auto;html=1;exitX=1;exitY=0.5;exitDx=0;exitDy=0;entryX=0;entryY=0.75;entryDx=0;entryDy=0;" parent="1" source="BlgcW5Yse4qnBoH1ercz-104" target="BlgcW5Yse4qnBoH1ercz-99" edge="1">
          <mxGeometry relative="1" as="geometry" />
        </mxCell>
        <mxCell id="BlgcW5Yse4qnBoH1ercz-104" value="ID_EX_extended_imm" style="rounded=0;whiteSpace=wrap;html=1;" parent="1" vertex="1">
          <mxGeometry x="560" y="450" width="30" height="30" as="geometry" />
        </mxCell>
        <mxCell id="BlgcW5Yse4qnBoH1ercz-106" value="MEM_WB_instr" style="rounded=0;whiteSpace=wrap;html=1;" parent="1" vertex="1">
          <mxGeometry x="1020" y="480" width="30" height="30" as="geometry" />
        </mxCell>
        <mxCell id="BlgcW5Yse4qnBoH1ercz-108" value="I_Addr" style="text;html=1;strokeColor=none;fillColor=none;align=center;verticalAlign=middle;whiteSpace=wrap;rounded=0;fontSize=18;" parent="1" vertex="1">
          <mxGeometry x="50" y="250" width="60" height="30" as="geometry" />
        </mxCell>
        <mxCell id="BlgcW5Yse4qnBoH1ercz-123" style="edgeStyle=orthogonalEdgeStyle;rounded=0;orthogonalLoop=1;jettySize=auto;html=1;exitX=1;exitY=0.75;exitDx=0;exitDy=0;entryX=0;entryY=0.25;entryDx=0;entryDy=0;" parent="1" source="BlgcW5Yse4qnBoH1ercz-113" target="BlgcW5Yse4qnBoH1ercz-47" edge="1">
          <mxGeometry relative="1" as="geometry" />
        </mxCell>
        <mxCell id="BlgcW5Yse4qnBoH1ercz-115" value="" style="group" parent="1" connectable="0" vertex="1">
          <mxGeometry x="1110" y="230" width="100" height="80" as="geometry" />
        </mxCell>
        <mxCell id="BlgcW5Yse4qnBoH1ercz-47" value="1&lt;br&gt;&lt;br&gt;0" style="rounded=0;whiteSpace=wrap;html=1;" parent="BlgcW5Yse4qnBoH1ercz-115" vertex="1">
          <mxGeometry width="20" height="80" as="geometry" />
        </mxCell>
        <mxCell id="b1a8amr-9f0_IU5kSMrG-4" value="WB_Mux_Res" style="text;html=1;strokeColor=none;fillColor=none;align=center;verticalAlign=middle;whiteSpace=wrap;rounded=0;" parent="BlgcW5Yse4qnBoH1ercz-115" vertex="1">
          <mxGeometry x="20" y="3" width="60" height="30" as="geometry" />
        </mxCell>
        <mxCell id="BlgcW5Yse4qnBoH1ercz-124" value="" style="group" parent="1" connectable="0" vertex="1">
          <mxGeometry x="1005" y="220" width="60" height="40" as="geometry" />
        </mxCell>
        <mxCell id="BlgcW5Yse4qnBoH1ercz-113" value="" style="rounded=0;whiteSpace=wrap;html=1;" parent="BlgcW5Yse4qnBoH1ercz-124" vertex="1">
          <mxGeometry x="15" y="10" width="30" height="30" as="geometry" />
        </mxCell>
        <mxCell id="BlgcW5Yse4qnBoH1ercz-114" value="MEM_WB_Data_Mem_In" style="text;html=1;strokeColor=none;fillColor=none;align=center;verticalAlign=middle;whiteSpace=wrap;rounded=0;" parent="BlgcW5Yse4qnBoH1ercz-124" vertex="1">
          <mxGeometry width="60" height="30" as="geometry" />
        </mxCell>
        <mxCell id="BlgcW5Yse4qnBoH1ercz-130" value="MEM_WB_ALU_Res" style="rounded=0;whiteSpace=wrap;html=1;" parent="1" vertex="1">
          <mxGeometry x="1020" y="420" width="30" height="30" as="geometry" />
        </mxCell>
        <mxCell id="BlgcW5Yse4qnBoH1ercz-132" style="edgeStyle=orthogonalEdgeStyle;rounded=0;orthogonalLoop=1;jettySize=auto;html=1;exitX=1;exitY=0.5;exitDx=0;exitDy=0;entryX=0;entryY=0.75;entryDx=0;entryDy=0;" parent="1" source="BlgcW5Yse4qnBoH1ercz-131" target="BlgcW5Yse4qnBoH1ercz-130" edge="1">
          <mxGeometry relative="1" as="geometry">
            <Array as="points">
              <mxPoint x="850" y="285" />
              <mxPoint x="850" y="443" />
            </Array>
          </mxGeometry>
        </mxCell>
        <mxCell id="BlgcW5Yse4qnBoH1ercz-131" value="EX_MEM_ALU_Res" style="rounded=0;whiteSpace=wrap;html=1;" parent="1" vertex="1">
          <mxGeometry x="800" y="270" width="30" height="30" as="geometry" />
        </mxCell>
        <mxCell id="BlgcW5Yse4qnBoH1ercz-133" style="edgeStyle=orthogonalEdgeStyle;rounded=0;orthogonalLoop=1;jettySize=auto;html=1;exitX=1;exitY=0.5;exitDx=0;exitDy=0;entryX=-0.043;entryY=0.599;entryDx=0;entryDy=0;entryPerimeter=0;" parent="1" source="BlgcW5Yse4qnBoH1ercz-130" target="BlgcW5Yse4qnBoH1ercz-47" edge="1">
          <mxGeometry relative="1" as="geometry" />
        </mxCell>
        <mxCell id="BlgcW5Yse4qnBoH1ercz-134" value="D_DataIn" style="text;html=1;strokeColor=none;fillColor=none;align=center;verticalAlign=middle;whiteSpace=wrap;rounded=0;fontColor=#00FF00;" parent="1" vertex="1">
          <mxGeometry x="960" y="250" width="60" height="30" as="geometry" />
        </mxCell>
        <mxCell id="BlgcW5Yse4qnBoH1ercz-136" value="I_DataIn" style="text;html=1;strokeColor=none;fillColor=none;align=center;verticalAlign=middle;whiteSpace=wrap;rounded=0;fontColor=#00FF00;" parent="1" vertex="1">
          <mxGeometry x="220" y="270" width="60" height="30" as="geometry" />
        </mxCell>
        <mxCell id="C-zeAwM3Q5V-ztLSvU6A-6" style="edgeStyle=orthogonalEdgeStyle;rounded=0;orthogonalLoop=1;jettySize=auto;html=1;exitX=1;exitY=0.5;exitDx=0;exitDy=0;exitPerimeter=0;entryX=0;entryY=0.5;entryDx=0;entryDy=0;" parent="1" source="C-zeAwM3Q5V-ztLSvU6A-4" target="BlgcW5Yse4qnBoH1ercz-131" edge="1">
          <mxGeometry relative="1" as="geometry" />
        </mxCell>
        <mxCell id="C-zeAwM3Q5V-ztLSvU6A-4" value="ALU" style="shape=step;perimeter=stepPerimeter;whiteSpace=wrap;html=1;fixedSize=1;points=[[0,0.25,0,0,0],[0,0.5,0,0,0],[0,0.75,0,0,0],[0.04,0.12,0,0,0],[0.04,0.89,0,0,0],[0.25,0,0,0,0],[0.25,1,0,0,0],[0.5,0,0,0,0],[0.5,1,0,0,0],[0.75,0,0,0,0],[0.75,1,0,0,0],[1,0.25,0,0,0],[1,0.5,0,0,0],[1,0.75,0,0,0]];strokeColor=#E6E6E6;fontColor=#E6E6E6;" parent="1" vertex="1">
          <mxGeometry x="659.64" y="193" width="100.71" height="80" as="geometry" />
        </mxCell>
        <mxCell id="C-zeAwM3Q5V-ztLSvU6A-7" style="edgeStyle=orthogonalEdgeStyle;rounded=0;orthogonalLoop=1;jettySize=auto;html=1;exitX=1;exitY=0.5;exitDx=0;exitDy=0;entryX=0;entryY=0.75;entryDx=0;entryDy=0;entryPerimeter=0;" parent="1" source="BlgcW5Yse4qnBoH1ercz-99" target="C-zeAwM3Q5V-ztLSvU6A-4" edge="1">
          <mxGeometry relative="1" as="geometry" />
        </mxCell>
        <mxCell id="C-zeAwM3Q5V-ztLSvU6A-8" value="EX_MEM_Input_B_ALU" style="edgeLabel;html=1;align=center;verticalAlign=middle;resizable=0;points=[];fontSize=9;" parent="C-zeAwM3Q5V-ztLSvU6A-7" vertex="1" connectable="0">
          <mxGeometry x="-0.8328" y="4" relative="1" as="geometry">
            <mxPoint x="-24" y="-51" as="offset" />
          </mxGeometry>
        </mxCell>
        <mxCell id="b1a8amr-9f0_IU5kSMrG-13" value="&amp;nbsp; / 32" style="edgeLabel;html=1;align=center;verticalAlign=middle;resizable=0;points=[];" parent="C-zeAwM3Q5V-ztLSvU6A-7" connectable="0" vertex="1">
          <mxGeometry x="-0.4625" y="1" relative="1" as="geometry">
            <mxPoint x="1" y="5" as="offset" />
          </mxGeometry>
        </mxCell>
        <mxCell id="C-zeAwM3Q5V-ztLSvU6A-22" style="edgeStyle=orthogonalEdgeStyle;rounded=0;orthogonalLoop=1;jettySize=auto;html=1;exitX=1;exitY=0.5;exitDx=0;exitDy=0;entryX=0;entryY=0.5;entryDx=0;entryDy=0;" parent="1" source="C-zeAwM3Q5V-ztLSvU6A-10" target="BlgcW5Yse4qnBoH1ercz-104" edge="1">
          <mxGeometry relative="1" as="geometry" />
        </mxCell>
        <mxCell id="C-zeAwM3Q5V-ztLSvU6A-23" value="/&lt;br&gt;32" style="edgeLabel;html=1;align=center;verticalAlign=middle;resizable=0;points=[];" parent="C-zeAwM3Q5V-ztLSvU6A-22" vertex="1" connectable="0">
          <mxGeometry x="-0.6421" y="3" relative="1" as="geometry">
            <mxPoint y="13" as="offset" />
          </mxGeometry>
        </mxCell>
        <mxCell id="C-zeAwM3Q5V-ztLSvU6A-10" value="Sign ext" style="ellipse;whiteSpace=wrap;html=1;" parent="1" vertex="1">
          <mxGeometry x="409.99999999999994" y="420" width="70" height="60" as="geometry" />
        </mxCell>
        <mxCell id="C-zeAwM3Q5V-ztLSvU6A-20" style="edgeStyle=orthogonalEdgeStyle;rounded=0;orthogonalLoop=1;jettySize=auto;html=1;exitX=1;exitY=0.5;exitDx=0;exitDy=0;entryX=0;entryY=0.5;entryDx=0;entryDy=0;" parent="1" edge="1">
          <mxGeometry relative="1" as="geometry">
            <mxPoint x="590" y="510" as="sourcePoint" />
            <mxPoint x="800" y="510" as="targetPoint" />
          </mxGeometry>
        </mxCell>
        <mxCell id="C-zeAwM3Q5V-ztLSvU6A-13" value="ID_EX_instr" style="rounded=0;whiteSpace=wrap;html=1;" parent="1" vertex="1">
          <mxGeometry x="560" y="480" width="30" height="30" as="geometry" />
        </mxCell>
        <mxCell id="C-zeAwM3Q5V-ztLSvU6A-21" style="edgeStyle=orthogonalEdgeStyle;rounded=0;orthogonalLoop=1;jettySize=auto;html=1;exitX=1;exitY=0.5;exitDx=0;exitDy=0;entryX=0;entryY=0.5;entryDx=0;entryDy=0;" parent="1" source="C-zeAwM3Q5V-ztLSvU6A-19" target="BlgcW5Yse4qnBoH1ercz-106" edge="1">
          <mxGeometry relative="1" as="geometry" />
        </mxCell>
        <mxCell id="C-zeAwM3Q5V-ztLSvU6A-19" value="EX_MEM_instr" style="rounded=0;whiteSpace=wrap;html=1;" parent="1" vertex="1">
          <mxGeometry x="800" y="480" width="30" height="30" as="geometry" />
        </mxCell>
        <mxCell id="C-zeAwM3Q5V-ztLSvU6A-25" style="edgeStyle=orthogonalEdgeStyle;rounded=0;orthogonalLoop=1;jettySize=auto;html=1;exitX=1;exitY=0.5;exitDx=0;exitDy=0;entryX=-0.029;entryY=0.755;entryDx=0;entryDy=0;entryPerimeter=0;" parent="1" source="BlgcW5Yse4qnBoH1ercz-47" target="BlgcW5Yse4qnBoH1ercz-42" edge="1">
          <mxGeometry relative="1" as="geometry">
            <Array as="points">
              <mxPoint x="1130" y="280" />
              <mxPoint x="1160" y="280" />
              <mxPoint x="1160" y="590" />
              <mxPoint x="340" y="590" />
              <mxPoint x="340" y="359" />
            </Array>
          </mxGeometry>
        </mxCell>
        <mxCell id="C-zeAwM3Q5V-ztLSvU6A-32" style="edgeStyle=orthogonalEdgeStyle;rounded=0;orthogonalLoop=1;jettySize=auto;html=1;exitX=1;exitY=0.5;exitDx=0;exitDy=0;" parent="1" source="C-zeAwM3Q5V-ztLSvU6A-28" edge="1">
          <mxGeometry relative="1" as="geometry">
            <Array as="points">
              <mxPoint x="325" y="310" />
              <mxPoint x="350" y="310" />
              <mxPoint x="350" y="130" />
            </Array>
            <mxPoint x="420" y="130" as="targetPoint" />
          </mxGeometry>
        </mxCell>
        <mxCell id="C-zeAwM3Q5V-ztLSvU6A-33" value="/&lt;br&gt;6" style="edgeLabel;html=1;align=center;verticalAlign=middle;resizable=0;points=[];" parent="C-zeAwM3Q5V-ztLSvU6A-32" vertex="1" connectable="0">
          <mxGeometry x="0.7322" relative="1" as="geometry">
            <mxPoint y="10" as="offset" />
          </mxGeometry>
        </mxCell>
        <mxCell id="b1a8amr-9f0_IU5kSMrG-5" style="edgeStyle=orthogonalEdgeStyle;rounded=0;orthogonalLoop=1;jettySize=auto;html=1;exitX=1;exitY=0.5;exitDx=0;exitDy=0;entryX=0;entryY=0.75;entryDx=0;entryDy=0;" parent="1" source="C-zeAwM3Q5V-ztLSvU6A-28" target="C-zeAwM3Q5V-ztLSvU6A-13" edge="1">
          <mxGeometry relative="1" as="geometry">
            <Array as="points">
              <mxPoint x="325" y="310" />
              <mxPoint x="360" y="310" />
              <mxPoint x="360" y="503" />
            </Array>
          </mxGeometry>
        </mxCell>
        <mxCell id="b1a8amr-9f0_IU5kSMrG-6" style="edgeStyle=orthogonalEdgeStyle;rounded=0;orthogonalLoop=1;jettySize=auto;html=1;exitX=1;exitY=0.5;exitDx=0;exitDy=0;entryX=0;entryY=0.5;entryDx=0;entryDy=0;" parent="1" source="C-zeAwM3Q5V-ztLSvU6A-28" target="C-zeAwM3Q5V-ztLSvU6A-10" edge="1">
          <mxGeometry relative="1" as="geometry">
            <Array as="points">
              <mxPoint x="325" y="310" />
              <mxPoint x="360" y="310" />
              <mxPoint x="360" y="450" />
            </Array>
          </mxGeometry>
        </mxCell>
        <mxCell id="C-zeAwM3Q5V-ztLSvU6A-28" value="IF_ID_instr" style="rounded=0;whiteSpace=wrap;html=1;" parent="1" vertex="1">
          <mxGeometry x="295" y="290" width="30" height="30" as="geometry" />
        </mxCell>
        <mxCell id="C-zeAwM3Q5V-ztLSvU6A-30" style="edgeStyle=orthogonalEdgeStyle;rounded=0;orthogonalLoop=1;jettySize=auto;html=1;exitX=1;exitY=0.25;exitDx=0;exitDy=0;entryX=0;entryY=0.25;entryDx=0;entryDy=0;entryPerimeter=0;" parent="1" source="BlgcW5Yse4qnBoH1ercz-101" target="C-zeAwM3Q5V-ztLSvU6A-4" edge="1">
          <mxGeometry relative="1" as="geometry" />
        </mxCell>
        <mxCell id="C-zeAwM3Q5V-ztLSvU6A-34" value="I_Addr" style="text;html=1;strokeColor=none;fillColor=none;align=center;verticalAlign=middle;whiteSpace=wrap;rounded=0;fontColor=#00FF00;" parent="1" vertex="1">
          <mxGeometry x="100" y="243" width="60" height="30" as="geometry" />
        </mxCell>
        <mxCell id="C-zeAwM3Q5V-ztLSvU6A-35" value="D_Addr" style="text;html=1;strokeColor=none;fillColor=none;align=center;verticalAlign=middle;whiteSpace=wrap;rounded=0;fontColor=#00FF00;" parent="1" vertex="1">
          <mxGeometry x="860" y="240" width="60" height="30" as="geometry" />
        </mxCell>
        <mxCell id="C-zeAwM3Q5V-ztLSvU6A-36" style="edgeStyle=orthogonalEdgeStyle;rounded=0;orthogonalLoop=1;jettySize=auto;html=1;exitX=1;exitY=0.5;exitDx=0;exitDy=0;entryX=0.009;entryY=0.159;entryDx=0;entryDy=0;entryPerimeter=0;" parent="1" source="BlgcW5Yse4qnBoH1ercz-131" target="BlgcW5Yse4qnBoH1ercz-44" edge="1">
          <mxGeometry relative="1" as="geometry" />
        </mxCell>
        <mxCell id="C-zeAwM3Q5V-ztLSvU6A-37" value="ALU_Op" style="text;html=1;strokeColor=none;fillColor=none;align=center;verticalAlign=middle;whiteSpace=wrap;rounded=0;fontColor=#3399FF;" parent="1" vertex="1">
          <mxGeometry x="675" y="550" width="60" height="30" as="geometry" />
        </mxCell>
        <mxCell id="C-zeAwM3Q5V-ztLSvU6A-38" value="D_DataOut" style="text;html=1;strokeColor=none;fillColor=none;align=center;verticalAlign=middle;whiteSpace=wrap;rounded=0;fontColor=#00FF00;" parent="1" vertex="1">
          <mxGeometry x="860" y="350" width="60" height="30" as="geometry" />
        </mxCell>
        <mxCell id="C-zeAwM3Q5V-ztLSvU6A-39" value="I_DataOut" style="text;html=1;strokeColor=none;fillColor=none;align=center;verticalAlign=middle;whiteSpace=wrap;rounded=0;fontColor=#00FF00;" parent="1" vertex="1">
          <mxGeometry x="100" y="340" width="60" height="30" as="geometry" />
        </mxCell>
        <mxCell id="4VJ9NztpFldPvkG-AUSs-1" value="" style="endArrow=classic;html=1;rounded=0;entryX=0.082;entryY=0.82;entryDx=0;entryDy=0;entryPerimeter=0;" parent="1" target="BlgcW5Yse4qnBoH1ercz-50" edge="1">
          <mxGeometry width="50" height="50" relative="1" as="geometry">
            <mxPoint x="650" y="510" as="sourcePoint" />
            <mxPoint x="690" y="450" as="targetPoint" />
            <Array as="points">
              <mxPoint x="650" y="470" />
            </Array>
          </mxGeometry>
        </mxCell>
        <mxCell id="4VJ9NztpFldPvkG-AUSs-7" value="/&lt;br&gt;6" style="edgeLabel;html=1;align=center;verticalAlign=middle;resizable=0;points=[];" parent="4VJ9NztpFldPvkG-AUSs-1" vertex="1" connectable="0">
          <mxGeometry x="0.5246" y="-1" relative="1" as="geometry">
            <mxPoint y="10" as="offset" />
          </mxGeometry>
        </mxCell>
        <mxCell id="4VJ9NztpFldPvkG-AUSs-10" value="" style="endArrow=classic;html=1;rounded=0;entryX=-0.128;entryY=0.189;entryDx=0;entryDy=0;entryPerimeter=0;" parent="1" target="BlgcW5Yse4qnBoH1ercz-75" edge="1">
          <mxGeometry width="50" height="50" relative="1" as="geometry">
            <mxPoint x="750" y="210" as="sourcePoint" />
            <mxPoint x="800" y="160" as="targetPoint" />
            <Array as="points">
              <mxPoint x="750" y="180" />
            </Array>
          </mxGeometry>
        </mxCell>
        <mxCell id="4VJ9NztpFldPvkG-AUSs-11" value="EX_MEM_ALU_Zero" style="text;html=1;align=center;verticalAlign=middle;resizable=0;points=[];autosize=1;strokeColor=none;fillColor=none;" parent="1" vertex="1">
          <mxGeometry x="732.5" y="155" width="140" height="30" as="geometry" />
        </mxCell>
        <mxCell id="4VJ9NztpFldPvkG-AUSs-12" value="" style="endArrow=none;html=1;rounded=0;entryX=0.999;entryY=0.203;entryDx=0;entryDy=0;entryPerimeter=0;" parent="1" target="BlgcW5Yse4qnBoH1ercz-75" edge="1">
          <mxGeometry width="50" height="50" relative="1" as="geometry">
            <mxPoint x="800" y="185" as="sourcePoint" />
            <mxPoint x="850" y="135" as="targetPoint" />
            <Array as="points" />
          </mxGeometry>
        </mxCell>
        <mxCell id="4VJ9NztpFldPvkG-AUSs-14" value="" style="endArrow=none;html=1;rounded=0;entryX=0.688;entryY=0.167;entryDx=0;entryDy=0;entryPerimeter=0;" parent="1" target="4VJ9NztpFldPvkG-AUSs-11" edge="1">
          <mxGeometry width="50" height="50" relative="1" as="geometry">
            <mxPoint x="800" y="160" as="sourcePoint" />
            <mxPoint x="850" y="110" as="targetPoint" />
            <Array as="points">
              <mxPoint x="820" y="160" />
            </Array>
          </mxGeometry>
        </mxCell>
        <mxCell id="4VJ9NztpFldPvkG-AUSs-15" value="" style="endArrow=classic;html=1;rounded=0;" parent="1" edge="1">
          <mxGeometry width="50" height="50" relative="1" as="geometry">
            <mxPoint x="270" y="94.5" as="sourcePoint" />
            <mxPoint x="910" y="94.5" as="targetPoint" />
          </mxGeometry>
        </mxCell>
        <mxCell id="4VJ9NztpFldPvkG-AUSs-16" value="IF_ID_PC4" style="text;html=1;align=center;verticalAlign=middle;resizable=0;points=[];autosize=1;strokeColor=none;fillColor=none;" parent="1" vertex="1">
          <mxGeometry x="280" y="71" width="80" height="30" as="geometry" />
        </mxCell>
        <mxCell id="4VJ9NztpFldPvkG-AUSs-17" value="ID_EX_PC4" style="text;html=1;align=center;verticalAlign=middle;resizable=0;points=[];autosize=1;strokeColor=none;fillColor=none;" parent="1" vertex="1">
          <mxGeometry x="535" y="70" width="90" height="30" as="geometry" />
        </mxCell>
        <mxCell id="4VJ9NztpFldPvkG-AUSs-18" value="EX_MEM_PC4" style="text;html=1;align=center;verticalAlign=middle;resizable=0;points=[];autosize=1;strokeColor=none;fillColor=none;" parent="1" vertex="1">
          <mxGeometry x="770" y="70" width="100" height="30" as="geometry" />
        </mxCell>
        <mxCell id="4VJ9NztpFldPvkG-AUSs-19" value="" style="endArrow=classic;html=1;rounded=0;" parent="1" edge="1">
          <mxGeometry width="50" height="50" relative="1" as="geometry">
            <mxPoint x="619.29" y="100" as="sourcePoint" />
            <mxPoint x="670" y="20" as="targetPoint" />
            <Array as="points">
              <mxPoint x="619" y="20" />
            </Array>
          </mxGeometry>
        </mxCell>
        <mxCell id="4VJ9NztpFldPvkG-AUSs-20" value="ID_EX_extended_imm" style="rounded=0;whiteSpace=wrap;html=1;" parent="1" vertex="1">
          <mxGeometry x="560" y="40" width="30" height="30" as="geometry" />
        </mxCell>
        <mxCell id="4VJ9NztpFldPvkG-AUSs-21" value="" style="endArrow=classic;html=1;rounded=0;entryX=0.056;entryY=0.857;entryDx=0;entryDy=0;entryPerimeter=0;" parent="1" target="BlgcW5Yse4qnBoH1ercz-64" edge="1">
          <mxGeometry width="50" height="50" relative="1" as="geometry">
            <mxPoint x="590" y="70" as="sourcePoint" />
            <mxPoint x="642" y="21" as="targetPoint" />
          </mxGeometry>
        </mxCell>
        <mxCell id="b1a8amr-9f0_IU5kSMrG-7" style="edgeStyle=orthogonalEdgeStyle;rounded=0;orthogonalLoop=1;jettySize=auto;html=1;exitX=1;exitY=0.5;exitDx=0;exitDy=0;entryX=0;entryY=0.532;entryDx=0;entryDy=0;entryPerimeter=0;" parent="1" source="BlgcW5Yse4qnBoH1ercz-106" target="BlgcW5Yse4qnBoH1ercz-42" edge="1">
          <mxGeometry relative="1" as="geometry">
            <Array as="points">
              <mxPoint x="1070" y="495" />
              <mxPoint x="1070" y="570" />
              <mxPoint x="380" y="570" />
              <mxPoint x="380" y="310" />
            </Array>
          </mxGeometry>
        </mxCell>
        <mxCell id="b1a8amr-9f0_IU5kSMrG-9" value="MEM_WB_instr(25 downto 21)" style="edgeLabel;html=1;align=center;verticalAlign=middle;resizable=0;points=[];" parent="b1a8amr-9f0_IU5kSMrG-7" connectable="0" vertex="1">
          <mxGeometry x="0.4218" y="-4" relative="1" as="geometry">
            <mxPoint x="40" y="-11" as="offset" />
          </mxGeometry>
        </mxCell>
        <mxCell id="b1a8amr-9f0_IU5kSMrG-10" value="WB_Mux_Res" style="text;html=1;strokeColor=none;fillColor=none;align=center;verticalAlign=middle;whiteSpace=wrap;rounded=0;" parent="1" vertex="1">
          <mxGeometry x="350" y="590" width="60" height="30" as="geometry" />
        </mxCell>
        <mxCell id="cZ4eaOPi89ZEALqz1hl4-1" value="data_wr" style="text;html=1;strokeColor=none;fillColor=none;align=center;verticalAlign=middle;whiteSpace=wrap;rounded=0;" vertex="1" parent="1">
          <mxGeometry x="380" y="360" width="60" height="30" as="geometry" />
        </mxCell>
        <mxCell id="cZ4eaOPi89ZEALqz1hl4-3" value="reg_wr" style="text;html=1;strokeColor=none;fillColor=none;align=center;verticalAlign=middle;whiteSpace=wrap;rounded=0;" vertex="1" parent="1">
          <mxGeometry x="380" y="310" width="60" height="30" as="geometry" />
        </mxCell>
        <mxCell id="cZ4eaOPi89ZEALqz1hl4-4" value="wr" style="text;html=1;strokeColor=none;fillColor=none;align=center;verticalAlign=middle;whiteSpace=wrap;rounded=0;" vertex="1" parent="1">
          <mxGeometry x="420" y="193" width="60" height="30" as="geometry" />
        </mxCell>
        <mxCell id="cZ4eaOPi89ZEALqz1hl4-7" value="ALU_Src" style="edgeLabel;html=1;align=center;verticalAlign=middle;resizable=0;points=[];fontColor=#007FFF;" connectable="0" vertex="1" parent="1">
          <mxGeometry x="654.0102979106298" y="439.47510546831063" as="geometry" />
        </mxCell>
      </root>
    </mxGraphModel>
  </diagram>
</mxfile>
